<svg xmlns="http://www.w3.org/2000/svg" xml:space="preserve" width="2000" height="1500" data-id="lg_IdSt1FF939ir13GIt3" data-version="1" viewBox="0 0 2000 1500"><path fill="#fff" stroke="transparent" d="M0 0h2000v1500H0z"/><g data-padding="20"><g transform="translate(-1651.786 -1253.14)scale(2.5829)"><rect width="442.26" height="61.02" x="548.78" y="706.446" fill="none" rx="0" ry="0" transform="matrix(.97 0 0 .97 345.15 32.68)"/><path fill="#6230a3" d="M890.233 747.917h-2.35v16.07h-4.79v-33.77l-.92-5.23q1.75-.21 3.86-.4 2.11-.18 4.38-.18 3.3 0 6.1.7 2.8.69 4.85 2.05 2.04 1.36 3.19 3.39t1.15 4.67q0 2.75-.94 4.84-.94 2.1-2.57 3.58-1.62 1.48-3.84 2.4-2.23.93-4.77 1.38l3.72 1.05 10.55 15.52h-5.84l-10.55-15.58q-.29-.36-.65-.43-.37-.06-.58-.06m-2.88-19.63.53 5.68v9.99h3.08q2.39 0 4.22-.66 1.83-.67 3.09-1.81 1.25-1.14 1.91-2.64.65-1.51.65-3.21 0-1.49-.42-2.64-.42-1.16-1.15-1.99-.73-.84-1.7-1.43t-2.05-.93q-1.09-.34-2.23-.5-1.14-.15-2.21-.15-1.1 0-1.98.06-.87.07-1.74.23m34.37 31.51h19.63l-.52 4.19h-24.08l.39-5.24v-28.53l-.79-5.49h24.08v4.18h-18.97l.52 4.98v6.93h16.62v3.8h-16.62v10.47Zm28.99 1.74 2.38-3.93q.52.34 1.38.77.85.43 1.89.83 1.05.39 2.23.65t2.38.26q1.62 0 3.26-.4 1.63-.41 2.96-1.26 1.32-.85 2.14-2.16.83-1.31.83-3.11 0-1.7-.79-2.99-.78-1.28-2.07-2.3-1.28-1.02-2.93-1.86t-3.36-1.67q-1.72-.84-3.36-1.74-1.65-.91-2.94-2.06-1.28-1.15-2.06-2.62-.79-1.46-.79-3.43 0-2.53 1.07-4.44 1.08-1.92 2.8-3.2 1.73-1.28 3.93-1.93 2.2-.66 4.45-.66 5.57 0 10.29 3.14l-2.54 3.22q-1.78-1.05-3.42-1.54-1.63-.5-3.65-.5-1.41 0-2.84.29t-2.56.93q-1.14.64-1.86 1.67-.72 1.04-.72 2.53 0 1.46.8 2.54.79 1.07 2.09 1.92t2.94 1.6q1.65.74 3.39 1.54t3.39 1.75q1.65.96 2.95 2.26 1.29 1.29 2.09 3.03t.8 4.1q0 2.93-1.19 5.11-1.19 2.19-3.14 3.64-1.95 1.46-4.46 2.19-2.52.73-5.13.73-1.68 0-3.12-.2-1.44-.19-2.73-.56-1.3-.36-2.48-.9t-2.3-1.24m53.19-36.8h4.98v25.57q0 3.56-.85 6.21-.85 2.66-2.46 4.41-1.61 1.76-3.94 2.63-2.33.88-5.32.88-3.19 0-5.43-1.11t-3.65-3.14-2.05-4.88q-.64-2.86-.64-6.31v-18.77l-.79-5.49 5.76-.53v25.29q0 2.48.48 4.43.49 1.95 1.4 3.3.92 1.35 2.23 2.05 1.31.71 2.96.71 3.84 0 5.58-2.29t1.74-6.9Zm40 39.26h-4.71v-23.59l1.54-13.03-.13-.03-4.03 12.54-4.53 11.02h-2.62l-4.6-10.99-4.3-12.57-.15.03 1.93 13.03v23.59h-4.71v-33.77l-.73-5.49 5.6-.53 6.44 14.92 1.86 6.54 1.8-6.54 5.92-14.39 5.42-.53Zm13.92-4.2h19.63l-.52 4.19h-24.08l.39-5.24v-28.53l-.78-5.49h24.08v4.18h-18.98l.52 4.98v6.93h16.62v3.8h-16.62v10.47Zm88.15 4.2h-4.71v-23.59l1.55-13.03-.13-.03-4.03 12.54-4.53 11.02h-2.62l-4.61-10.99-4.29-12.57-.16.03 1.94 13.03v23.59h-4.71v-33.77l-.73-5.49 5.6-.53 6.44 14.92 1.86 6.54 1.8-6.54 5.92-14.39 5.41-.53Zm9.5 0h-4.82l12.35-34.03.92-5.23 4.66-.53 14.34 39.79h-5.23l-3.88-11.78h-14Zm12.4-28.27-1.18-8.38-1.17 8.38-4.43 12.56h11.44Zm26.34 28.27h-5v-33.77l-.78-5.49 5.78-.53v17.38l14.29-16.85h5.81l-13.89 16.62-4.43 1.64 4.56 1.52 14.47 19.48h-6.2l-14.61-19.53Zm33.74-4.2h19.63l-.52 4.19h-24.08l.39-5.24v-28.53l-.79-5.49h24.08v4.18h-18.97l.52 4.98v6.93h16.62v3.8h-16.62v10.47Zm36.57-11.88h-2.36v16.07h-4.79v-33.77l-.92-5.23q1.76-.21 3.86-.4 2.11-.18 4.39-.18 3.3 0 6.1.7 2.8.69 4.84 2.05t3.19 3.39 1.15 4.67q0 2.75-.94 4.84-.94 2.1-2.56 3.58-1.63 1.48-3.85 2.4-2.23.93-4.76 1.38l3.71 1.05 10.55 15.52h-5.84l-10.54-15.58q-.29-.36-.66-.43-.37-.06-.57-.06m-2.88-19.63.52 5.68v9.99h3.09q2.38 0 4.21-.66 1.83-.67 3.09-1.81t1.91-2.64q.66-1.51.66-3.21 0-1.49-.42-2.64-.42-1.16-1.15-1.99-.74-.84-1.71-1.43-.96-.59-2.05-.93t-2.23-.5q-1.13-.15-2.21-.15-1.1 0-1.97.06-.88.07-1.74.23"/><g fill="#6230a3" stroke="#6230a3" stroke-width="3" transform="matrix(.89 0 0 .89 99.18 60.69)"><path d="M839.115 735.152v136.094"/>undefined
        undefined</g><path fill="#6230a3" d="M746.875 723.797v96.14h71.896v-96.14Zm35.948 11.495a8.161 8.161 0 1 1-.02 16.323 8.161 8.161 0 0 1 .02-16.323m0 17.556c10.659 0 19.437 8.569 19.437 19.437h-38.874c0-10.868 8.778-19.437 19.437-19.437m26.96 54.131h-53.921c-1.254 0-2.09-.836-2.09-2.09s.836-2.09 2.09-2.09h53.922c1.254 0 2.09.836 2.09 2.09s-1.045 2.09-2.09 2.09m0-16.093h-53.922c-1.254 0-2.09-.836-2.09-2.09s.836-2.09 2.09-2.09h53.922c1.254 0 2.09.836 2.09 2.09s-1.045 2.09-2.09 2.09"/><rect width="393.159" height="28.25" x="573.33" y="722.831" fill="none" rx="0" ry="0" transform="matrix(.97 0 0 .97 321.35 82.58)"/><path fill="#6230a3" d="M889.243 799.947q0 1.54-.77 2.62-.76 1.09-2.13 1.65-1.38.57-3.23.57-.99 0-1.86-.09-.88-.1-1.61-.28-.74-.17-1.29-.43v-1.93q.89.36 2.16.68 1.28.31 2.68.31 1.3 0 2.2-.35t1.37-1q.46-.66.46-1.58 0-.89-.39-1.49t-1.29-1.09q-.91-.49-2.47-1.04-1.1-.39-1.94-.86t-1.41-1.06-.86-1.37-.29-1.79q0-1.39.71-2.37.7-.99 1.95-1.52 1.25-.52 2.87-.52 1.38 0 2.56.26t2.16.69l-.63 1.73q-.93-.39-1.98-.65t-2.16-.26-1.87.33q-.77.32-1.17.91t-.4 1.41q0 .91.38 1.52.39.6 1.23 1.07.85.46 2.25.97 1.52.56 2.59 1.18 1.06.62 1.62 1.52.56.89.56 2.26m7.42 3.23q.49 0 1-.08t.83-.2v1.52q-.35.16-.96.26-.6.11-1.18.11-1.03 0-1.87-.36t-1.35-1.22q-.5-.87-.5-2.39v-7.7h-1.85v-.96l1.86-.76.78-2.82h1.19v3.01h3.79v1.53h-3.79v7.64q0 1.21.56 1.82.56.6 1.49.6m9.31-11.81q2.32 0 3.44 1.04t1.12 3.33v8.81h-1.43l-.38-1.91h-.09q-.55.71-1.14 1.19t-1.36.72q-.78.24-1.9.24-1.19 0-2.1-.41-.92-.42-1.45-1.26-.52-.84-.52-2.13 0-1.94 1.53-2.98 1.54-1.04 4.69-1.14l2.24-.09v-.79q0-1.68-.73-2.36-.72-.67-2.03-.67-1.02 0-1.94.29-.92.3-1.75.7l-.61-1.49q.88-.45 2.02-.77 1.13-.32 2.39-.32m2.62 7.99v-1.2l-1.97.09q-2.43.09-3.42.79-1 .7-1 1.98 0 1.11.68 1.64.67.53 1.78.53 1.73 0 2.83-.95 1.1-.96 1.1-2.88m12.13-8.01q2.31 0 3.49 1.13 1.19 1.13 1.19 3.63v8.44h-1.94v-8.31q0-1.63-.74-2.43t-2.27-.8q-2.15 0-3.03 1.21-.87 1.22-.87 3.54v6.79h-1.97v-12.96h1.59l.29 1.86h.11q.41-.68 1.05-1.15t1.43-.71q.8-.24 1.67-.24m13.34 13.44q-2.46 0-3.9-1.68t-1.44-4.99q0-3.35 1.47-5.06t3.9-1.71q1.03 0 1.8.27t1.33.73q.55.45.93 1.03h.14q-.04-.36-.09-1t-.05-1.04v-5.2h1.97v18.41h-1.59l-.29-1.84h-.09q-.36.58-.93 1.05-.56.48-1.33.75-.78.28-1.83.28m.31-1.63q2.08 0 2.94-1.19.87-1.18.87-3.51v-.35q0-2.48-.83-3.8-.82-1.33-2.98-1.33-1.81 0-2.71 1.39t-.9 3.79q0 2.39.89 3.7.89 1.3 2.72 1.3m31.5-7.27q0 2-.51 3.64t-1.51 2.82q-1 1.17-2.48 1.81t-3.43.64q-2.01 0-3.51-.64t-2.49-1.82q-.98-1.18-1.47-2.83-.5-1.64-.5-3.64 0-2.65.88-4.65t2.66-3.12q1.78-1.11 4.46-1.11 2.57 0 4.33 1.1t2.66 3.1q.91 1.99.91 4.7m-13.78 0q0 2.2.63 3.81t1.92 2.49q1.3.87 3.3.87 2.01 0 3.29-.87 1.29-.88 1.9-2.49.62-1.61.62-3.81 0-3.35-1.4-5.24-1.41-1.88-4.38-1.88-2.01 0-3.31.86t-1.93 2.46q-.64 1.59-.64 3.8m26.06-4.3h1.98v12.96h-1.61l-.29-1.82h-.1q-.41.68-1.05 1.14-.63.46-1.43.69t-1.7.23q-1.54 0-2.58-.5-1.04-.49-1.57-1.53-.53-1.05-.53-2.68v-8.49h1.99v8.35q0 1.62.74 2.42.73.8 2.23.8 1.45 0 2.3-.55.86-.54 1.24-1.6t.38-2.6Zm10.32 11.59q.48 0 .99-.08t.83-.2v1.52q-.34.16-.95.26-.61.11-1.19.11-1.03 0-1.87-.36t-1.34-1.22q-.51-.87-.51-2.39v-7.7h-1.84v-.96l1.86-.76.78-2.82h1.18v3.01h3.8v1.53h-3.8v7.64q0 1.21.56 1.82.56.6 1.5.6m23.57 1.36h-2.28l-2.31-7.55q-.15-.48-.29-.95l-.25-.9q-.11-.43-.2-.81-.09-.37-.15-.64h-.08q-.05.27-.13.64-.08.38-.19.82-.12.43-.25.91t-.29.97l-2.42 7.51h-2.21l-3.57-12.97h2.03l1.87 7.16q.19.71.36 1.4.17.7.3 1.3.12.61.18 1.06h.1q.07-.29.16-.71.08-.41.2-.88.11-.47.24-.93.13-.47.26-.88l2.39-7.52h2.12l2.31 7.5q.17.57.35 1.19.17.61.31 1.19.14.57.2 1.02h.09q.05-.4.18-.99.13-.6.3-1.31.18-.71.37-1.44l1.89-7.16h2Zm5.95-12.95h1.97v12.96h-1.97Zm1.01-4.86q.48 0 .83.32.35.31.35.97 0 .65-.35.97t-.83.32q-.51 0-.85-.32-.33-.32-.33-.97 0-.66.33-.97.34-.32.85-.32m9.3 16.45q.49 0 .99-.08.51-.08.83-.2v1.52q-.34.16-.95.26-.61.11-1.19.11-1.03 0-1.87-.36t-1.34-1.22q-.51-.87-.51-2.39v-7.7h-1.84v-.96l1.86-.76.78-2.82h1.18v3.01h3.8v1.53h-3.8v7.64q0 1.21.56 1.82.57.6 1.5.6m4.45-17.04h1.96v5.5q0 .48-.02.96t-.08.88h.13q.4-.69 1.02-1.16.62-.46 1.42-.71.79-.24 1.68-.24 1.56 0 2.6.5 1.05.5 1.58 1.54t.53 2.7v8.44h-1.95v-8.31q0-1.63-.74-2.43-.73-.8-2.26-.8-1.44 0-2.3.55t-1.23 1.61q-.38 1.07-.38 2.6v6.78h-1.96Zm26.01 5.23q2.32 0 3.44 1.04 1.13 1.04 1.13 3.33v8.81h-1.43l-.38-1.91h-.1q-.54.71-1.13 1.19-.6.48-1.37.72-.78.24-1.9.24-1.18 0-2.1-.41-.92-.42-1.44-1.26-.53-.84-.53-2.13 0-1.94 1.54-2.98t4.68-1.14l2.24-.09v-.79q0-1.68-.72-2.36-.72-.67-2.04-.67-1.01 0-1.94.29-.92.3-1.75.7l-.6-1.49q.87-.45 2.01-.77 1.13-.32 2.39-.32m2.63 7.99v-1.2l-1.98.09q-2.43.09-3.42.79t-.99 1.98q0 1.11.67 1.64.68.53 1.79.53 1.73 0 2.83-.95 1.1-.96 1.1-2.88m22.33.59q0 1.54-.77 2.62-.76 1.09-2.13 1.65-1.37.57-3.23.57-.98 0-1.86-.09-.88-.1-1.61-.28-.73-.17-1.29-.43v-1.93q.89.36 2.17.68 1.27.31 2.67.31 1.3 0 2.2-.35t1.37-1q.47-.66.47-1.58 0-.89-.39-1.49t-1.3-1.09-2.47-1.04q-1.1-.39-1.94-.86t-1.41-1.06q-.56-.59-.85-1.37t-.29-1.79q0-1.39.7-2.37.7-.99 1.95-1.52 1.25-.52 2.87-.52 1.39 0 2.56.26 1.18.26 2.16.69l-.62 1.73q-.94-.39-1.99-.65-1.04-.26-2.16-.26-1.11 0-1.87.33-.76.32-1.17.91-.4.59-.4 1.41 0 .91.39 1.52.38.6 1.23 1.07.84.46 2.24.97 1.53.56 2.59 1.18 1.07.62 1.62 1.52.56.89.56 2.26m7.43 3.23q.48 0 .99-.08t.83-.2v1.52q-.34.16-.95.26-.61.11-1.19.11-1.03 0-1.87-.36t-1.34-1.22q-.51-.87-.51-2.39v-7.7h-1.84v-.96l1.85-.76.78-2.82h1.19v3.01h3.8v1.53h-3.8v7.64q0 1.21.56 1.82.56.6 1.5.6m9.44-11.83q1.66 0 2.84.73 1.18.74 1.81 2.06.63 1.31.63 3.08v1.22h-8.96q.04 2.28 1.14 3.48 1.1 1.19 3.1 1.19 1.23 0 2.17-.22.95-.23 1.97-.67v1.73q-.98.44-1.95.64-.96.2-2.28.2-1.87 0-3.26-.76-1.39-.77-2.16-2.24-.77-1.48-.77-3.63 0-2.09.71-3.62.7-1.53 1.99-2.36 1.28-.83 3.02-.83m-.02 1.61q-1.58 0-2.51 1.03-.94 1.03-1.11 2.87h6.86q-.01-1.16-.36-2.04t-1.06-1.37-1.82-.49m10.61-6.82v18.41h-1.97v-18.41Zm6.12 0v18.41h-1.98v-18.41Zm8.99 5.23q2.32 0 3.45 1.04 1.12 1.04 1.12 3.33v8.81h-1.43l-.38-1.91h-.09q-.55.71-1.14 1.19t-1.37.72q-.77.24-1.9.24-1.18 0-2.1-.41-.91-.42-1.44-1.26t-.53-2.13q0-1.94 1.54-2.98t4.69-1.14l2.23-.09v-.79q0-1.68-.72-2.36-.72-.67-2.03-.67-1.02 0-1.94.29-.93.3-1.76.7l-.6-1.49q.88-.45 2.01-.77 1.14-.32 2.39-.32m2.63 7.99v-1.2l-1.98.09q-2.42.09-3.42.79-.99.7-.99 1.98 0 1.11.67 1.64.68.53 1.79.53 1.73 0 2.83-.95 1.1-.96 1.1-2.88m11.88-8.01q.39 0 .82.04.42.04.75.11l-.24 1.82q-.32-.08-.71-.13-.39-.04-.74-.04-.78 0-1.47.31t-1.21.9-.82 1.41-.3 1.83v6.95h-1.97v-12.96h1.63l.21 2.39h.09q.4-.73.97-1.32.56-.6 1.32-.96.75-.35 1.67-.35m10.6-4.1h4.68q2.13 0 3.52.53t2.07 1.6q.69 1.08.69 2.75 0 1.37-.5 2.29-.49.92-1.3 1.48-.8.57-1.71.88l4.74 7.77h-2.34l-4.24-7.21h-3.6v7.21h-2.01Zm4.56 1.74h-2.55v6.64h2.75q2.12 0 3.12-.86 1-.87 1-2.55 0-1.76-1.06-2.49-1.06-.74-3.26-.74m15.1 2.36q1.66 0 2.84.73 1.18.74 1.81 2.06.63 1.31.63 3.08v1.22h-8.96q.03 2.28 1.13 3.48 1.1 1.19 3.1 1.19 1.24 0 2.18-.22.95-.23 1.97-.67v1.73q-.99.44-1.95.64t-2.28.2q-1.87 0-3.26-.76-1.39-.77-2.16-2.24-.77-1.48-.77-3.63 0-2.09.71-3.62.7-1.53 1.99-2.36 1.28-.83 3.02-.83m-.03 1.61q-1.57 0-2.5 1.03-.94 1.03-1.12 2.87h6.87q-.01-1.16-.36-2.04t-1.06-1.37-1.83-.49m17.03 8.04q0 1.25-.62 2.09-.62.85-1.77 1.28-1.16.42-2.75.42-1.37 0-2.36-.21t-1.74-.61v-1.81q.79.39 1.89.71 1.11.32 2.25.32 1.68 0 2.44-.54t.76-1.48q0-.53-.3-.94-.31-.41-1.02-.79-.71-.39-1.96-.85-1.24-.47-2.15-.94-.9-.47-1.39-1.14-.5-.68-.5-1.75 0-1.65 1.34-2.53 1.33-.88 3.49-.88 1.17 0 2.2.23 1.02.23 1.91.62l-.66 1.57q-.81-.34-1.72-.58-.91-.23-1.86-.23-1.36 0-2.09.45-.72.45-.72 1.23 0 .6.33.99.34.39 1.09.74.74.34 1.96.8 1.22.45 2.11.93.88.48 1.36 1.16t.48 1.74m11.9-9.41h1.97v12.96h-1.61l-.28-1.82h-.11q-.4.68-1.04 1.14t-1.44.69-1.7.23q-1.53 0-2.57-.5-1.05-.49-1.57-1.53-.53-1.05-.53-2.68v-8.49h1.99v8.35q0 1.62.73 2.42.74.8 2.24.8 1.44 0 2.3-.55.86-.54 1.24-1.6t.38-2.6Zm20.21-.24q2.14 0 3.23 1.12 1.09 1.11 1.09 3.59v8.49h-1.94v-8.4q0-1.57-.68-2.36-.69-.78-2.02-.78-1.88 0-2.74 1.08-.85 1.09-.85 3.21v7.25h-1.95v-8.4q0-1.05-.3-1.75t-.9-1.05q-.6-.34-1.51-.34-1.29 0-2.07.53t-1.13 1.58q-.35 1.04-.35 2.57v6.86h-1.96v-12.96h1.58l.3 1.83h.1q.39-.68.99-1.14.59-.46 1.32-.69.73-.24 1.56-.24 1.48 0 2.48.55t1.45 1.67h.11q.64-1.12 1.75-1.67t2.44-.55m13.34 0q1.65 0 2.84.73 1.18.74 1.81 2.06.62 1.31.62 3.08v1.22h-8.95q.03 2.28 1.13 3.48 1.1 1.19 3.1 1.19 1.23 0 2.18-.22.95-.23 1.96-.67v1.73q-.98.44-1.94.64-.97.2-2.28.2-1.87 0-3.26-.76-1.39-.77-2.16-2.24-.77-1.48-.77-3.63 0-2.09.7-3.62.71-1.53 1.99-2.36 1.29-.83 3.03-.83m-.03 1.61q-1.57 0-2.51 1.03-.93 1.03-1.11 2.87h6.86q-.01-1.16-.36-2.04t-1.06-1.37-1.82-.49"/></g><path fill="transparent" stroke="transparent" stroke-width="2.679" d="M250 587.946h1500v324.108H250z"/></g></svg>